<svg xmlns="http://www.w3.org/2000/svg" viewBox="0 0 250.29 300"><defs><style>.cls-1{fill:#fdbb36;}</style></defs><title>Pofile</title><g id="Layer_2" data-name="Layer 2"><g id="Layer_1-2" data-name="Layer 1"><path class="cls-1" d="M123.25,144.51a69.9,69.9,0,0,0,51.09-21.17,69.89,69.89,0,0,0,21.17-51.09,69.91,69.91,0,0,0-21.17-51.08A69.92,69.92,0,0,0,123.25,0,69.92,69.92,0,0,0,72.16,21.17,69.92,69.92,0,0,0,51,72.25a69.9,69.9,0,0,0,21.18,51.09,69.88,69.88,0,0,0,51.08,21.17Z"/><path class="cls-1" d="M249.68,230.68a176.14,176.14,0,0,0-2.43-19,149.33,149.33,0,0,0-4.66-19.06,94.39,94.39,0,0,0-7.84-17.78,66.83,66.83,0,0,0-11.81-15.39,52,52,0,0,0-17-10.66,58.52,58.52,0,0,0-21.67-3.93c-3.06,0-6,1.26-11.74,5-3.52,2.3-7.64,5-12.24,7.89a69.69,69.69,0,0,1-15.82,7,61.47,61.47,0,0,1-38.73,0,69.59,69.59,0,0,1-15.81-7c-4.56-2.91-8.68-5.56-12.25-7.89-5.71-3.72-8.68-5-11.74-5a58.43,58.43,0,0,0-21.66,3.93,52.13,52.13,0,0,0-17,10.66,67.55,67.55,0,0,0-11.81,15.39,95,95,0,0,0-7.83,17.78A149.33,149.33,0,0,0,3,211.73a175.36,175.36,0,0,0-2.43,19c-.4,5.74-.6,11.7-.6,17.72,0,15.66,5,28.34,14.79,37.69S37.32,300,52.92,300H197.37c15.6,0,28.42-4.68,38.12-13.9s14.8-22,14.8-37.7c0-6-.21-12-.61-17.72Z"/></g></g></svg>